<mxfile host="app.diagrams.net" modified="2023-08-28T05:56:41.545Z" agent="Mozilla/5.0 (Windows NT 10.0; Win64; x64) AppleWebKit/537.36 (KHTML, like Gecko) Chrome/116.0.0.0 Safari/537.36" etag="9gTH13UQe9mK8_ek8yKZ" version="21.6.8" type="github">
  <diagram name="Page-1" id="ZKXFvE9tr2XVCGrnfxwX">
    <mxGraphModel dx="780" dy="450" grid="1" gridSize="10" guides="1" tooltips="1" connect="1" arrows="1" fold="1" page="1" pageScale="1" pageWidth="850" pageHeight="1100" math="0" shadow="0">
      <root>
        <mxCell id="0" />
        <mxCell id="1" parent="0" />
        <mxCell id="HF1rEi9baAs1JosRHV_L-1" style="edgeStyle=orthogonalEdgeStyle;rounded=0;orthogonalLoop=1;jettySize=auto;html=1;exitX=1;exitY=0.5;exitDx=0;exitDy=0;entryX=0;entryY=0.5;entryDx=0;entryDy=0;" edge="1" parent="1" source="HF1rEi9baAs1JosRHV_L-2" target="HF1rEi9baAs1JosRHV_L-4">
          <mxGeometry relative="1" as="geometry" />
        </mxCell>
        <mxCell id="HF1rEi9baAs1JosRHV_L-2" value="需求讨论" style="rounded=1;whiteSpace=wrap;html=1;fillColor=#dae8fc;strokeColor=#6c8ebf;" vertex="1" parent="1">
          <mxGeometry x="120" y="40" width="80" height="40" as="geometry" />
        </mxCell>
        <mxCell id="HF1rEi9baAs1JosRHV_L-3" style="edgeStyle=orthogonalEdgeStyle;rounded=0;orthogonalLoop=1;jettySize=auto;html=1;exitX=1;exitY=0.5;exitDx=0;exitDy=0;entryX=0;entryY=0.5;entryDx=0;entryDy=0;" edge="1" parent="1" source="HF1rEi9baAs1JosRHV_L-4" target="HF1rEi9baAs1JosRHV_L-6">
          <mxGeometry relative="1" as="geometry" />
        </mxCell>
        <mxCell id="HF1rEi9baAs1JosRHV_L-4" value="需求可行性" style="rounded=1;whiteSpace=wrap;html=1;fillColor=#dae8fc;strokeColor=#6c8ebf;" vertex="1" parent="1">
          <mxGeometry x="280" y="40" width="80" height="40" as="geometry" />
        </mxCell>
        <mxCell id="HF1rEi9baAs1JosRHV_L-5" style="edgeStyle=orthogonalEdgeStyle;rounded=0;orthogonalLoop=1;jettySize=auto;html=1;exitX=1;exitY=0.5;exitDx=0;exitDy=0;entryX=0;entryY=0.5;entryDx=0;entryDy=0;" edge="1" parent="1" source="HF1rEi9baAs1JosRHV_L-6" target="HF1rEi9baAs1JosRHV_L-8">
          <mxGeometry relative="1" as="geometry" />
        </mxCell>
        <mxCell id="HF1rEi9baAs1JosRHV_L-6" value="UI设计" style="rounded=1;whiteSpace=wrap;html=1;fillColor=#dae8fc;strokeColor=#6c8ebf;" vertex="1" parent="1">
          <mxGeometry x="440" y="40" width="80" height="40" as="geometry" />
        </mxCell>
        <mxCell id="HF1rEi9baAs1JosRHV_L-7" style="edgeStyle=orthogonalEdgeStyle;rounded=0;orthogonalLoop=1;jettySize=auto;html=1;exitX=0.5;exitY=1;exitDx=0;exitDy=0;entryX=0.5;entryY=0;entryDx=0;entryDy=0;" edge="1" parent="1" source="HF1rEi9baAs1JosRHV_L-8" target="HF1rEi9baAs1JosRHV_L-14">
          <mxGeometry relative="1" as="geometry" />
        </mxCell>
        <mxCell id="HF1rEi9baAs1JosRHV_L-8" value="需求宣讲" style="rounded=1;whiteSpace=wrap;html=1;fillColor=#dae8fc;strokeColor=#6c8ebf;" vertex="1" parent="1">
          <mxGeometry x="600" y="40" width="80" height="40" as="geometry" />
        </mxCell>
        <mxCell id="HF1rEi9baAs1JosRHV_L-9" value="产品内部" style="text;html=1;strokeColor=#b85450;fillColor=#f8cecc;align=center;verticalAlign=middle;whiteSpace=wrap;rounded=0;" vertex="1" parent="1">
          <mxGeometry x="130" y="90" width="60" height="20" as="geometry" />
        </mxCell>
        <mxCell id="HF1rEi9baAs1JosRHV_L-10" value="产品+开发" style="text;html=1;strokeColor=#b85450;fillColor=#f8cecc;align=center;verticalAlign=middle;whiteSpace=wrap;rounded=0;" vertex="1" parent="1">
          <mxGeometry x="290" y="90" width="60" height="20" as="geometry" />
        </mxCell>
        <mxCell id="HF1rEi9baAs1JosRHV_L-11" value="产品+设计+前端" style="text;html=1;strokeColor=#b85450;fillColor=#f8cecc;align=center;verticalAlign=middle;whiteSpace=wrap;rounded=0;" vertex="1" parent="1">
          <mxGeometry x="435" y="90" width="90" height="20" as="geometry" />
        </mxCell>
        <mxCell id="HF1rEi9baAs1JosRHV_L-12" value="ALL" style="text;html=1;strokeColor=#b85450;fillColor=#f8cecc;align=center;verticalAlign=middle;whiteSpace=wrap;rounded=0;" vertex="1" parent="1">
          <mxGeometry x="570" y="90" width="60" height="20" as="geometry" />
        </mxCell>
        <mxCell id="HF1rEi9baAs1JosRHV_L-13" style="edgeStyle=orthogonalEdgeStyle;rounded=0;orthogonalLoop=1;jettySize=auto;html=1;exitX=0;exitY=0.5;exitDx=0;exitDy=0;entryX=1;entryY=0.5;entryDx=0;entryDy=0;" edge="1" parent="1" source="HF1rEi9baAs1JosRHV_L-14" target="HF1rEi9baAs1JosRHV_L-19">
          <mxGeometry relative="1" as="geometry" />
        </mxCell>
        <mxCell id="HF1rEi9baAs1JosRHV_L-14" value="项目启动" style="rounded=1;whiteSpace=wrap;html=1;fillColor=#dae8fc;strokeColor=#6c8ebf;" vertex="1" parent="1">
          <mxGeometry x="600" y="200" width="80" height="40" as="geometry" />
        </mxCell>
        <mxCell id="HF1rEi9baAs1JosRHV_L-15" value="需求文档" style="text;html=1;strokeColor=#82b366;fillColor=#d5e8d4;align=center;verticalAlign=middle;whiteSpace=wrap;rounded=0;" vertex="1" parent="1">
          <mxGeometry x="650" y="90" width="60" height="20" as="geometry" />
        </mxCell>
        <mxCell id="HF1rEi9baAs1JosRHV_L-16" value="项目开发周期" style="text;html=1;strokeColor=#82b366;fillColor=#d5e8d4;align=center;verticalAlign=middle;whiteSpace=wrap;rounded=0;" vertex="1" parent="1">
          <mxGeometry x="650" y="250" width="80" height="20" as="geometry" />
        </mxCell>
        <mxCell id="HF1rEi9baAs1JosRHV_L-17" value="发布时间" style="text;html=1;strokeColor=#82b366;fillColor=#d5e8d4;align=center;verticalAlign=middle;whiteSpace=wrap;rounded=0;" vertex="1" parent="1">
          <mxGeometry x="650" y="280" width="80" height="20" as="geometry" />
        </mxCell>
        <mxCell id="HF1rEi9baAs1JosRHV_L-18" style="edgeStyle=orthogonalEdgeStyle;rounded=0;orthogonalLoop=1;jettySize=auto;html=1;exitX=0;exitY=0.5;exitDx=0;exitDy=0;entryX=1;entryY=0.5;entryDx=0;entryDy=0;" edge="1" parent="1" source="HF1rEi9baAs1JosRHV_L-19" target="HF1rEi9baAs1JosRHV_L-22">
          <mxGeometry relative="1" as="geometry" />
        </mxCell>
        <mxCell id="HF1rEi9baAs1JosRHV_L-19" value="研发" style="rounded=1;whiteSpace=wrap;html=1;fillColor=#dae8fc;strokeColor=#6c8ebf;" vertex="1" parent="1">
          <mxGeometry x="440" y="200" width="80" height="40" as="geometry" />
        </mxCell>
        <mxCell id="HF1rEi9baAs1JosRHV_L-20" value="产品+开发" style="text;html=1;strokeColor=#b85450;fillColor=#f8cecc;align=center;verticalAlign=middle;whiteSpace=wrap;rounded=0;" vertex="1" parent="1">
          <mxGeometry x="450" y="250" width="60" height="20" as="geometry" />
        </mxCell>
        <mxCell id="HF1rEi9baAs1JosRHV_L-21" style="edgeStyle=orthogonalEdgeStyle;rounded=0;orthogonalLoop=1;jettySize=auto;html=1;exitX=0;exitY=0.5;exitDx=0;exitDy=0;entryX=1;entryY=0.5;entryDx=0;entryDy=0;" edge="1" parent="1" source="HF1rEi9baAs1JosRHV_L-22" target="HF1rEi9baAs1JosRHV_L-25">
          <mxGeometry relative="1" as="geometry" />
        </mxCell>
        <mxCell id="HF1rEi9baAs1JosRHV_L-22" value="测试用例" style="rounded=1;whiteSpace=wrap;html=1;fillColor=#dae8fc;strokeColor=#6c8ebf;" vertex="1" parent="1">
          <mxGeometry x="280" y="200" width="80" height="40" as="geometry" />
        </mxCell>
        <mxCell id="HF1rEi9baAs1JosRHV_L-23" value="产品+开发+测试" style="text;html=1;strokeColor=#b85450;fillColor=#f8cecc;align=center;verticalAlign=middle;whiteSpace=wrap;rounded=0;" vertex="1" parent="1">
          <mxGeometry x="275" y="250" width="90" height="20" as="geometry" />
        </mxCell>
        <mxCell id="HF1rEi9baAs1JosRHV_L-24" style="edgeStyle=orthogonalEdgeStyle;rounded=0;orthogonalLoop=1;jettySize=auto;html=1;exitX=0.5;exitY=1;exitDx=0;exitDy=0;" edge="1" parent="1" source="HF1rEi9baAs1JosRHV_L-25" target="HF1rEi9baAs1JosRHV_L-30">
          <mxGeometry relative="1" as="geometry" />
        </mxCell>
        <mxCell id="HF1rEi9baAs1JosRHV_L-25" value="提测" style="rounded=1;whiteSpace=wrap;html=1;fillColor=#dae8fc;strokeColor=#6c8ebf;" vertex="1" parent="1">
          <mxGeometry x="120" y="200" width="80" height="40" as="geometry" />
        </mxCell>
        <mxCell id="HF1rEi9baAs1JosRHV_L-26" value="产品+开发+测试" style="text;html=1;strokeColor=#b85450;fillColor=#f8cecc;align=center;verticalAlign=middle;whiteSpace=wrap;rounded=0;" vertex="1" parent="1">
          <mxGeometry x="115" y="250" width="90" height="20" as="geometry" />
        </mxCell>
        <mxCell id="HF1rEi9baAs1JosRHV_L-27" value="产品体验" style="text;html=1;strokeColor=#82b366;fillColor=#d5e8d4;align=center;verticalAlign=middle;whiteSpace=wrap;rounded=0;" vertex="1" parent="1">
          <mxGeometry x="70" y="280" width="80" height="20" as="geometry" />
        </mxCell>
        <mxCell id="HF1rEi9baAs1JosRHV_L-28" value="系统测试" style="text;html=1;strokeColor=#82b366;fillColor=#d5e8d4;align=center;verticalAlign=middle;whiteSpace=wrap;rounded=0;" vertex="1" parent="1">
          <mxGeometry x="170" y="280" width="80" height="20" as="geometry" />
        </mxCell>
        <mxCell id="HF1rEi9baAs1JosRHV_L-29" style="edgeStyle=orthogonalEdgeStyle;rounded=0;orthogonalLoop=1;jettySize=auto;html=1;exitX=1;exitY=0.5;exitDx=0;exitDy=0;" edge="1" parent="1" source="HF1rEi9baAs1JosRHV_L-30" target="HF1rEi9baAs1JosRHV_L-33">
          <mxGeometry relative="1" as="geometry" />
        </mxCell>
        <mxCell id="HF1rEi9baAs1JosRHV_L-30" value="客服培训" style="rounded=1;whiteSpace=wrap;html=1;fillColor=#dae8fc;strokeColor=#6c8ebf;" vertex="1" parent="1">
          <mxGeometry x="120" y="360" width="80" height="40" as="geometry" />
        </mxCell>
        <mxCell id="HF1rEi9baAs1JosRHV_L-31" value="产品+客服" style="text;html=1;strokeColor=#b85450;fillColor=#f8cecc;align=center;verticalAlign=middle;whiteSpace=wrap;rounded=0;" vertex="1" parent="1">
          <mxGeometry x="130" y="410" width="60" height="20" as="geometry" />
        </mxCell>
        <mxCell id="HF1rEi9baAs1JosRHV_L-32" style="edgeStyle=orthogonalEdgeStyle;rounded=0;orthogonalLoop=1;jettySize=auto;html=1;exitX=1;exitY=0.5;exitDx=0;exitDy=0;" edge="1" parent="1" source="HF1rEi9baAs1JosRHV_L-33" target="HF1rEi9baAs1JosRHV_L-36">
          <mxGeometry relative="1" as="geometry" />
        </mxCell>
        <mxCell id="HF1rEi9baAs1JosRHV_L-33" value="发布" style="rounded=1;whiteSpace=wrap;html=1;fillColor=#dae8fc;strokeColor=#6c8ebf;" vertex="1" parent="1">
          <mxGeometry x="280" y="360" width="80" height="40" as="geometry" />
        </mxCell>
        <mxCell id="HF1rEi9baAs1JosRHV_L-34" value="开发+运维+运营" style="text;html=1;strokeColor=#b85450;fillColor=#f8cecc;align=center;verticalAlign=middle;whiteSpace=wrap;rounded=0;" vertex="1" parent="1">
          <mxGeometry x="275" y="410" width="90" height="20" as="geometry" />
        </mxCell>
        <mxCell id="HF1rEi9baAs1JosRHV_L-35" style="edgeStyle=orthogonalEdgeStyle;rounded=0;orthogonalLoop=1;jettySize=auto;html=1;exitX=1;exitY=0.5;exitDx=0;exitDy=0;entryX=0;entryY=0.5;entryDx=0;entryDy=0;" edge="1" parent="1" source="HF1rEi9baAs1JosRHV_L-36" target="HF1rEi9baAs1JosRHV_L-38">
          <mxGeometry relative="1" as="geometry" />
        </mxCell>
        <mxCell id="HF1rEi9baAs1JosRHV_L-36" value="升级" style="rounded=1;whiteSpace=wrap;html=1;fillColor=#dae8fc;strokeColor=#6c8ebf;" vertex="1" parent="1">
          <mxGeometry x="440" y="360" width="80" height="40" as="geometry" />
        </mxCell>
        <mxCell id="HF1rEi9baAs1JosRHV_L-37" value="开发+运营" style="text;html=1;strokeColor=#b85450;fillColor=#f8cecc;align=center;verticalAlign=middle;whiteSpace=wrap;rounded=0;" vertex="1" parent="1">
          <mxGeometry x="450" y="410" width="60" height="20" as="geometry" />
        </mxCell>
        <mxCell id="HF1rEi9baAs1JosRHV_L-38" value="运营报告" style="rounded=1;whiteSpace=wrap;html=1;fillColor=#dae8fc;strokeColor=#6c8ebf;" vertex="1" parent="1">
          <mxGeometry x="600" y="360" width="80" height="40" as="geometry" />
        </mxCell>
        <mxCell id="HF1rEi9baAs1JosRHV_L-39" value="运营" style="text;html=1;strokeColor=#b85450;fillColor=#f8cecc;align=center;verticalAlign=middle;whiteSpace=wrap;rounded=0;" vertex="1" parent="1">
          <mxGeometry x="625" y="410" width="30" height="20" as="geometry" />
        </mxCell>
        <mxCell id="HF1rEi9baAs1JosRHV_L-40" value="需求阶段" style="text;html=1;strokeColor=#9673a6;fillColor=#e1d5e7;align=center;verticalAlign=middle;whiteSpace=wrap;rounded=0;" vertex="1" parent="1">
          <mxGeometry x="10" y="45" width="60" height="30" as="geometry" />
        </mxCell>
        <mxCell id="HF1rEi9baAs1JosRHV_L-41" value="研发阶段" style="text;html=1;strokeColor=#9673a6;fillColor=#e1d5e7;align=center;verticalAlign=middle;whiteSpace=wrap;rounded=0;" vertex="1" parent="1">
          <mxGeometry x="10" y="205" width="60" height="30" as="geometry" />
        </mxCell>
        <mxCell id="HF1rEi9baAs1JosRHV_L-42" value="发布阶段" style="text;html=1;strokeColor=#9673a6;fillColor=#e1d5e7;align=center;verticalAlign=middle;whiteSpace=wrap;rounded=0;" vertex="1" parent="1">
          <mxGeometry x="10" y="365" width="60" height="30" as="geometry" />
        </mxCell>
      </root>
    </mxGraphModel>
  </diagram>
</mxfile>
